<mxfile host="app.diagrams.net" modified="2023-04-06T03:02:13.621Z" agent="Mozilla/5.0 (Macintosh; Intel Mac OS X 10_15_7) AppleWebKit/537.36 (KHTML, like Gecko) Chrome/111.0.0.0 Safari/537.36" etag="yMtxlX4YDb-A5wcAhGdP" version="21.1.2" type="github">
  <diagram name="Page-1" id="rstx6p6qgsADmOoGUs8Y">
    <mxGraphModel dx="4585" dy="1831" grid="1" gridSize="10" guides="1" tooltips="1" connect="1" arrows="1" fold="1" page="1" pageScale="1" pageWidth="827" pageHeight="1169" math="0" shadow="0">
      <root>
        <mxCell id="0" />
        <mxCell id="1" parent="0" />
        <mxCell id="feBxPXIGXP_3zXf3UD-c-1" value="" style="rounded=1;whiteSpace=wrap;html=1;strokeWidth=1;fontSize=16;fillColor=none;fontStyle=0;dashed=1;" vertex="1" parent="1">
          <mxGeometry x="-1294" y="110" width="160" height="210" as="geometry" />
        </mxCell>
        <mxCell id="feBxPXIGXP_3zXf3UD-c-2" style="edgeStyle=orthogonalEdgeStyle;rounded=0;orthogonalLoop=1;jettySize=auto;html=1;exitX=0.5;exitY=0;exitDx=0;exitDy=0;strokeWidth=1;fontSize=20;entryX=0.495;entryY=0.93;entryDx=0;entryDy=0;entryPerimeter=0;endArrow=blockThin;endFill=1;fontStyle=0" edge="1" parent="1" source="feBxPXIGXP_3zXf3UD-c-4" target="feBxPXIGXP_3zXf3UD-c-20">
          <mxGeometry relative="1" as="geometry" />
        </mxCell>
        <mxCell id="feBxPXIGXP_3zXf3UD-c-3" style="edgeStyle=orthogonalEdgeStyle;rounded=0;orthogonalLoop=1;jettySize=auto;html=1;exitX=0.5;exitY=0;exitDx=0;exitDy=0;entryX=0;entryY=0.5;entryDx=0;entryDy=0;strokeWidth=1;fontSize=20;endArrow=blockThin;endFill=1;fontStyle=0" edge="1" parent="1" source="feBxPXIGXP_3zXf3UD-c-4" target="feBxPXIGXP_3zXf3UD-c-22">
          <mxGeometry relative="1" as="geometry">
            <Array as="points">
              <mxPoint x="-1184" y="200" />
              <mxPoint x="-1244" y="200" />
              <mxPoint x="-1244" y="130" />
            </Array>
          </mxGeometry>
        </mxCell>
        <mxCell id="feBxPXIGXP_3zXf3UD-c-4" value="Add &amp; Norm" style="whiteSpace=wrap;align=center;verticalAlign=middle;fontStyle=0;strokeWidth=1;fillColor=#FFFFCC" vertex="1" parent="1">
          <mxGeometry x="-1224" y="210" width="80" height="20" as="geometry" />
        </mxCell>
        <mxCell id="feBxPXIGXP_3zXf3UD-c-5" style="edgeStyle=orthogonalEdgeStyle;rounded=0;orthogonalLoop=1;jettySize=auto;html=1;exitX=0.5;exitY=0;exitDx=0;exitDy=0;entryX=0.5;entryY=1;entryDx=0;entryDy=0;strokeWidth=1;endArrow=blockThin;endFill=1;fontStyle=0" edge="1" parent="1" source="feBxPXIGXP_3zXf3UD-c-6" target="feBxPXIGXP_3zXf3UD-c-4">
          <mxGeometry relative="1" as="geometry" />
        </mxCell>
        <mxCell id="feBxPXIGXP_3zXf3UD-c-6" value="Multi-Head Attention" style="whiteSpace=wrap;align=center;verticalAlign=middle;fontStyle=0;strokeWidth=1;fillColor=#fad7ac;strokeColor=#000000;" vertex="1" parent="1">
          <mxGeometry x="-1224" y="240" width="80" height="40" as="geometry" />
        </mxCell>
        <mxCell id="feBxPXIGXP_3zXf3UD-c-7" style="edgeStyle=orthogonalEdgeStyle;rounded=0;orthogonalLoop=1;jettySize=auto;html=1;exitX=0.5;exitY=0;exitDx=0;exitDy=0;entryX=0.5;entryY=1;entryDx=0;entryDy=0;fontSize=20;strokeWidth=1;endArrow=blockThin;endFill=1;fontStyle=0" edge="1" parent="1" source="feBxPXIGXP_3zXf3UD-c-8" target="feBxPXIGXP_3zXf3UD-c-15">
          <mxGeometry relative="1" as="geometry" />
        </mxCell>
        <mxCell id="feBxPXIGXP_3zXf3UD-c-8" value="Input Embedding" style="whiteSpace=wrap;align=center;verticalAlign=middle;fontStyle=0;strokeWidth=1;fillColor=#fad9d5;strokeColor=#000000;" vertex="1" parent="1">
          <mxGeometry x="-1434" y="200" width="80" height="30" as="geometry" />
        </mxCell>
        <mxCell id="feBxPXIGXP_3zXf3UD-c-9" style="edgeStyle=orthogonalEdgeStyle;rounded=0;orthogonalLoop=1;jettySize=auto;html=1;exitX=0.5;exitY=0;exitDx=0;exitDy=0;strokeWidth=1;fontSize=20;endArrow=blockThin;endFill=1;fontStyle=0" edge="1" parent="1" target="feBxPXIGXP_3zXf3UD-c-6">
          <mxGeometry relative="1" as="geometry">
            <mxPoint x="-1184" y="320" as="sourcePoint" />
          </mxGeometry>
        </mxCell>
        <mxCell id="feBxPXIGXP_3zXf3UD-c-10" style="edgeStyle=orthogonalEdgeStyle;rounded=0;orthogonalLoop=1;jettySize=auto;html=1;exitX=0.5;exitY=0;exitDx=0;exitDy=0;entryX=0.75;entryY=1;entryDx=0;entryDy=0;strokeWidth=1;fontSize=20;endArrow=blockThin;endFill=1;fontStyle=0" edge="1" parent="1" target="feBxPXIGXP_3zXf3UD-c-6">
          <mxGeometry relative="1" as="geometry">
            <mxPoint x="-1184" y="320" as="sourcePoint" />
            <Array as="points">
              <mxPoint x="-1184" y="300" />
              <mxPoint x="-1164" y="300" />
            </Array>
          </mxGeometry>
        </mxCell>
        <mxCell id="feBxPXIGXP_3zXf3UD-c-11" style="edgeStyle=orthogonalEdgeStyle;rounded=0;orthogonalLoop=1;jettySize=auto;html=1;exitX=0.5;exitY=0;exitDx=0;exitDy=0;entryX=0.25;entryY=1;entryDx=0;entryDy=0;strokeWidth=1;fontSize=20;endArrow=blockThin;endFill=1;fontStyle=0" edge="1" parent="1" source="feBxPXIGXP_3zXf3UD-c-13" target="feBxPXIGXP_3zXf3UD-c-6">
          <mxGeometry relative="1" as="geometry">
            <mxPoint x="-1184" y="320" as="sourcePoint" />
            <Array as="points">
              <mxPoint x="-1394" y="100" />
              <mxPoint x="-1334" y="100" />
              <mxPoint x="-1334" y="330" />
              <mxPoint x="-1184" y="330" />
              <mxPoint x="-1184" y="300" />
              <mxPoint x="-1204" y="300" />
            </Array>
          </mxGeometry>
        </mxCell>
        <mxCell id="feBxPXIGXP_3zXf3UD-c-12" style="edgeStyle=orthogonalEdgeStyle;rounded=0;orthogonalLoop=1;jettySize=auto;html=1;exitX=0.5;exitY=0;exitDx=0;exitDy=0;entryX=0;entryY=0.5;entryDx=0;entryDy=0;strokeWidth=1;fontSize=20;endArrow=blockThin;endFill=1;fontStyle=0" edge="1" parent="1" source="feBxPXIGXP_3zXf3UD-c-13" target="feBxPXIGXP_3zXf3UD-c-4">
          <mxGeometry relative="1" as="geometry">
            <mxPoint x="-1184" y="320" as="sourcePoint" />
            <Array as="points">
              <mxPoint x="-1394" y="100" />
              <mxPoint x="-1334" y="100" />
              <mxPoint x="-1334" y="330" />
              <mxPoint x="-1184" y="330" />
              <mxPoint x="-1184" y="310" />
              <mxPoint x="-1244" y="310" />
              <mxPoint x="-1244" y="220" />
            </Array>
          </mxGeometry>
        </mxCell>
        <mxCell id="feBxPXIGXP_3zXf3UD-c-13" value="&lt;font style=&quot;font-size: 16px;&quot;&gt;+&lt;/font&gt;" style="ellipse;whiteSpace=wrap;html=1;aspect=fixed;strokeColor=#000000;strokeWidth=1;fontStyle=0" vertex="1" parent="1">
          <mxGeometry x="-1404" y="110" width="20" height="20" as="geometry" />
        </mxCell>
        <mxCell id="feBxPXIGXP_3zXf3UD-c-14" style="edgeStyle=orthogonalEdgeStyle;rounded=0;orthogonalLoop=1;jettySize=auto;html=1;exitX=0.5;exitY=0;exitDx=0;exitDy=0;fontSize=20;strokeWidth=1;endArrow=blockThin;endFill=1;fontStyle=0" edge="1" parent="1" source="feBxPXIGXP_3zXf3UD-c-15" target="feBxPXIGXP_3zXf3UD-c-13">
          <mxGeometry relative="1" as="geometry" />
        </mxCell>
        <mxCell id="feBxPXIGXP_3zXf3UD-c-15" value="Positional Encoding" style="whiteSpace=wrap;align=center;verticalAlign=middle;fontStyle=0;strokeWidth=1;fillColor=#fad9d5;strokeColor=#000000;" vertex="1" parent="1">
          <mxGeometry x="-1434" y="150" width="80" height="30" as="geometry" />
        </mxCell>
        <mxCell id="feBxPXIGXP_3zXf3UD-c-16" value="" style="edgeStyle=segmentEdgeStyle;endArrow=blockThin;html=1;curved=0;rounded=0;endSize=8;startSize=8;fontSize=20;exitX=0.5;exitY=0;exitDx=0;exitDy=0;entryX=0;entryY=0.5;entryDx=0;entryDy=0;strokeWidth=1;endFill=1;fontStyle=0" edge="1" parent="1" source="feBxPXIGXP_3zXf3UD-c-8" target="feBxPXIGXP_3zXf3UD-c-13">
          <mxGeometry width="50" height="50" relative="1" as="geometry">
            <mxPoint x="-1394" y="240" as="sourcePoint" />
            <mxPoint x="-1194" y="220" as="targetPoint" />
            <Array as="points">
              <mxPoint x="-1394" y="190" />
              <mxPoint x="-1454" y="190" />
              <mxPoint x="-1454" y="120" />
            </Array>
          </mxGeometry>
        </mxCell>
        <mxCell id="feBxPXIGXP_3zXf3UD-c-17" style="edgeStyle=orthogonalEdgeStyle;rounded=0;orthogonalLoop=1;jettySize=auto;html=1;exitX=0.5;exitY=0;exitDx=0;exitDy=0;" edge="1" parent="1" source="feBxPXIGXP_3zXf3UD-c-18" target="feBxPXIGXP_3zXf3UD-c-73">
          <mxGeometry relative="1" as="geometry" />
        </mxCell>
        <mxCell id="feBxPXIGXP_3zXf3UD-c-18" value="Output Embedding&#xa;ï¼ˆPhone)" style="whiteSpace=wrap;align=center;verticalAlign=middle;fontStyle=0;strokeWidth=1;fillColor=#fad9d5;strokeColor=#000000;" vertex="1" parent="1">
          <mxGeometry x="-594" y="160" width="80" height="40" as="geometry" />
        </mxCell>
        <mxCell id="feBxPXIGXP_3zXf3UD-c-19" style="edgeStyle=orthogonalEdgeStyle;rounded=0;orthogonalLoop=1;jettySize=auto;html=1;exitX=0.5;exitY=0;exitDx=0;exitDy=0;strokeWidth=1;fontSize=20;endArrow=blockThin;endFill=1;fontStyle=0" edge="1" parent="1" source="feBxPXIGXP_3zXf3UD-c-20" target="feBxPXIGXP_3zXf3UD-c-22">
          <mxGeometry relative="1" as="geometry" />
        </mxCell>
        <mxCell id="feBxPXIGXP_3zXf3UD-c-20" value="Feed Forward" style="whiteSpace=wrap;align=center;verticalAlign=middle;fontStyle=0;strokeWidth=1;fillColor=#CCFFFF;" vertex="1" parent="1">
          <mxGeometry x="-1224" y="150" width="80" height="40" as="geometry" />
        </mxCell>
        <mxCell id="feBxPXIGXP_3zXf3UD-c-21" style="edgeStyle=orthogonalEdgeStyle;rounded=0;orthogonalLoop=1;jettySize=auto;html=1;exitX=0.5;exitY=0;exitDx=0;exitDy=0;strokeWidth=1;fontSize=12;endArrow=blockThin;endFill=1;entryX=0.5;entryY=1;entryDx=0;entryDy=0;" edge="1" parent="1" source="feBxPXIGXP_3zXf3UD-c-22" target="feBxPXIGXP_3zXf3UD-c-55">
          <mxGeometry relative="1" as="geometry">
            <mxPoint x="-1114" y="450" as="targetPoint" />
            <Array as="points">
              <mxPoint x="-1184" y="100" />
              <mxPoint x="-1114" y="100" />
              <mxPoint x="-1114" y="380" />
              <mxPoint x="-974" y="380" />
            </Array>
          </mxGeometry>
        </mxCell>
        <mxCell id="feBxPXIGXP_3zXf3UD-c-22" value="Add &amp; Norm" style="whiteSpace=wrap;align=center;verticalAlign=middle;fontStyle=0;strokeWidth=1;fillColor=#FFFFCC" vertex="1" parent="1">
          <mxGeometry x="-1224" y="120" width="80" height="20" as="geometry" />
        </mxCell>
        <mxCell id="feBxPXIGXP_3zXf3UD-c-23" value="Transformer-Encoder" style="text;html=1;strokeColor=none;fillColor=none;align=center;verticalAlign=middle;whiteSpace=wrap;rounded=0;fontSize=12;horizontal=0;fontStyle=0" vertex="1" parent="1">
          <mxGeometry x="-1304" y="155" width="60" height="30" as="geometry" />
        </mxCell>
        <mxCell id="feBxPXIGXP_3zXf3UD-c-24" value="(N-1)x" style="text;html=1;strokeColor=none;fillColor=none;align=center;verticalAlign=middle;whiteSpace=wrap;rounded=0;fontSize=12;fontStyle=0" vertex="1" parent="1">
          <mxGeometry x="-1334" y="250" width="40" height="30" as="geometry" />
        </mxCell>
        <mxCell id="feBxPXIGXP_3zXf3UD-c-25" style="edgeStyle=orthogonalEdgeStyle;rounded=0;orthogonalLoop=1;jettySize=auto;html=1;exitDx=0;exitDy=0;entryX=0.5;entryY=1;entryDx=0;entryDy=0;startArrow=none;" edge="1" parent="1" source="feBxPXIGXP_3zXf3UD-c-83" target="feBxPXIGXP_3zXf3UD-c-65">
          <mxGeometry relative="1" as="geometry">
            <mxPoint x="-803.9999999998977" y="280" as="targetPoint" />
            <Array as="points" />
          </mxGeometry>
        </mxCell>
        <mxCell id="feBxPXIGXP_3zXf3UD-c-26" style="edgeStyle=orthogonalEdgeStyle;rounded=0;orthogonalLoop=1;jettySize=auto;html=1;exitX=0.5;exitY=0;exitDx=0;exitDy=0;" edge="1" parent="1" source="feBxPXIGXP_3zXf3UD-c-29" target="feBxPXIGXP_3zXf3UD-c-18">
          <mxGeometry relative="1" as="geometry" />
        </mxCell>
        <mxCell id="feBxPXIGXP_3zXf3UD-c-27" style="edgeStyle=orthogonalEdgeStyle;rounded=0;orthogonalLoop=1;jettySize=auto;html=1;exitX=0.5;exitY=0;exitDx=0;exitDy=0;entryX=-0.033;entryY=-0.067;entryDx=0;entryDy=0;entryPerimeter=0;" edge="1" parent="1" source="feBxPXIGXP_3zXf3UD-c-29" target="feBxPXIGXP_3zXf3UD-c-82">
          <mxGeometry relative="1" as="geometry">
            <Array as="points">
              <mxPoint x="-554" y="280" />
            </Array>
          </mxGeometry>
        </mxCell>
        <mxCell id="feBxPXIGXP_3zXf3UD-c-28" style="edgeStyle=orthogonalEdgeStyle;rounded=0;orthogonalLoop=1;jettySize=auto;html=1;exitX=0.5;exitY=0;exitDx=0;exitDy=0;entryX=0.3;entryY=0.317;entryDx=0;entryDy=0;entryPerimeter=0;" edge="1" parent="1" source="feBxPXIGXP_3zXf3UD-c-29" target="feBxPXIGXP_3zXf3UD-c-83">
          <mxGeometry relative="1" as="geometry">
            <Array as="points">
              <mxPoint x="-554" y="310" />
              <mxPoint x="-699" y="310" />
              <mxPoint x="-814" y="309" />
            </Array>
          </mxGeometry>
        </mxCell>
        <mxCell id="feBxPXIGXP_3zXf3UD-c-29" value="FC" style="whiteSpace=wrap;align=center;verticalAlign=middle;fontStyle=0;strokeWidth=1;fillColor=#d0cee2;strokeColor=#000000;" vertex="1" parent="1">
          <mxGeometry x="-594" y="330" width="80" height="30" as="geometry" />
        </mxCell>
        <mxCell id="feBxPXIGXP_3zXf3UD-c-30" style="edgeStyle=orthogonalEdgeStyle;rounded=0;orthogonalLoop=1;jettySize=auto;html=1;exitX=0.5;exitY=0;exitDx=0;exitDy=0;entryX=0.5;entryY=1;entryDx=0;entryDy=0;strokeWidth=1;fontSize=12;endArrow=blockThin;endFill=1;" edge="1" parent="1" source="feBxPXIGXP_3zXf3UD-c-31" target="feBxPXIGXP_3zXf3UD-c-33">
          <mxGeometry relative="1" as="geometry" />
        </mxCell>
        <mxCell id="feBxPXIGXP_3zXf3UD-c-31" value="Input" style="shape=parallelogram;perimeter=parallelogramPerimeter;whiteSpace=wrap;html=1;fixedSize=1;strokeColor=#000000;strokeWidth=1;fontSize=12;fillColor=#fad9d5;fontStyle=0" vertex="1" parent="1">
          <mxGeometry x="-1439" y="300" width="85" height="30" as="geometry" />
        </mxCell>
        <mxCell id="feBxPXIGXP_3zXf3UD-c-32" style="edgeStyle=orthogonalEdgeStyle;rounded=0;orthogonalLoop=1;jettySize=auto;html=1;exitX=0.5;exitY=0;exitDx=0;exitDy=0;entryX=0.5;entryY=1;entryDx=0;entryDy=0;strokeWidth=1;fontSize=12;endArrow=blockThin;endFill=1;" edge="1" parent="1" source="feBxPXIGXP_3zXf3UD-c-33" target="feBxPXIGXP_3zXf3UD-c-8">
          <mxGeometry relative="1" as="geometry" />
        </mxCell>
        <mxCell id="feBxPXIGXP_3zXf3UD-c-33" value="Tokenize" style="whiteSpace=wrap;align=center;verticalAlign=middle;fontStyle=0;strokeWidth=1;fillColor=#fad9d5;strokeColor=#000000;" vertex="1" parent="1">
          <mxGeometry x="-1434" y="250" width="80" height="30" as="geometry" />
        </mxCell>
        <mxCell id="feBxPXIGXP_3zXf3UD-c-34" value="G&lt;sub style=&quot;border-color: var(--border-color);&quot;&gt;1&lt;/sub&gt;, G&lt;sub style=&quot;border-color: var(--border-color);&quot;&gt;2&lt;/sub&gt;, ..., G&lt;sub style=&quot;border-color: var(--border-color);&quot;&gt;n&lt;/sub&gt;" style="text;html=1;strokeColor=none;fillColor=none;align=center;verticalAlign=middle;whiteSpace=wrap;rounded=0;fontSize=12;" vertex="1" parent="1">
          <mxGeometry x="-1599" y="300" width="90" height="30" as="geometry" />
        </mxCell>
        <mxCell id="feBxPXIGXP_3zXf3UD-c-35" value="&amp;lt;LANG&amp;gt;, G&lt;sub style=&quot;border-color: var(--border-color);&quot;&gt;1&lt;/sub&gt;, G&lt;sub style=&quot;border-color: var(--border-color);&quot;&gt;2&lt;/sub&gt;,&amp;nbsp;..., G&lt;sub style=&quot;border-color: var(--border-color);&quot;&gt;n&lt;/sub&gt;,&amp;nbsp;&amp;lt;END&amp;gt;" style="text;html=1;strokeColor=none;fillColor=none;align=center;verticalAlign=middle;whiteSpace=wrap;rounded=0;fontSize=12;" vertex="1" parent="1">
          <mxGeometry x="-1654" y="250" width="200" height="30" as="geometry" />
        </mxCell>
        <mxCell id="feBxPXIGXP_3zXf3UD-c-36" value="P&lt;sub style=&quot;border-color: var(--border-color);&quot;&gt;1&lt;/sub&gt;, P&lt;sub style=&quot;border-color: var(--border-color);&quot;&gt;2&lt;/sub&gt;, ..., P&lt;sub style=&quot;border-color: var(--border-color);&quot;&gt;m&lt;/sub&gt;" style="text;html=1;strokeColor=none;fillColor=none;align=center;verticalAlign=middle;whiteSpace=wrap;rounded=0;fontSize=12;" vertex="1" parent="1">
          <mxGeometry x="-415.8699999999999" y="20" width="90" height="30" as="geometry" />
        </mxCell>
        <mxCell id="feBxPXIGXP_3zXf3UD-c-37" value="(&amp;lt;LANG&amp;gt;,&amp;lt;LANG&amp;gt;, &amp;lt;LANG&amp;gt;), (P&lt;sub style=&quot;border-color: var(--border-color);&quot;&gt;1&lt;/sub&gt;, Sy&lt;sub style=&quot;border-color: var(--border-color);&quot;&gt;1&lt;/sub&gt;, St&lt;sub style=&quot;border-color: var(--border-color);&quot;&gt;1&lt;/sub&gt;), (P&lt;sub style=&quot;border-color: var(--border-color);&quot;&gt;2&lt;/sub&gt;, Sy&lt;sub style=&quot;border-color: var(--border-color);&quot;&gt;2&lt;/sub&gt;,&amp;nbsp;St&lt;sub style=&quot;border-color: var(--border-color);&quot;&gt;2&lt;/sub&gt;), ..., (P&lt;sub style=&quot;border-color: var(--border-color);&quot;&gt;m&lt;/sub&gt;, Sy&lt;sub style=&quot;border-color: var(--border-color);&quot;&gt;m&lt;/sub&gt;,&amp;nbsp;St&lt;sub style=&quot;border-color: var(--border-color);&quot;&gt;m&lt;/sub&gt;), ..." style="text;html=1;strokeColor=none;fillColor=none;align=center;verticalAlign=middle;whiteSpace=wrap;rounded=0;fontSize=12;" vertex="1" parent="1">
          <mxGeometry x="-497.75" y="85" width="253.75" height="30" as="geometry" />
        </mxCell>
        <mxCell id="feBxPXIGXP_3zXf3UD-c-38" value="" style="rounded=1;whiteSpace=wrap;html=1;strokeWidth=1;fontSize=16;fillColor=none;fontStyle=0;dashed=1;" vertex="1" parent="1">
          <mxGeometry x="-1084" y="20" width="160" height="210" as="geometry" />
        </mxCell>
        <mxCell id="feBxPXIGXP_3zXf3UD-c-39" style="edgeStyle=orthogonalEdgeStyle;rounded=0;orthogonalLoop=1;jettySize=auto;html=1;exitX=0.5;exitY=0;exitDx=0;exitDy=0;strokeWidth=1;fontSize=20;entryX=0.495;entryY=0.93;entryDx=0;entryDy=0;entryPerimeter=0;endArrow=blockThin;endFill=1;fontStyle=0" edge="1" parent="1" source="feBxPXIGXP_3zXf3UD-c-41" target="feBxPXIGXP_3zXf3UD-c-47">
          <mxGeometry relative="1" as="geometry" />
        </mxCell>
        <mxCell id="feBxPXIGXP_3zXf3UD-c-40" style="edgeStyle=orthogonalEdgeStyle;rounded=0;orthogonalLoop=1;jettySize=auto;html=1;exitX=0.5;exitY=0;exitDx=0;exitDy=0;entryX=0;entryY=0.5;entryDx=0;entryDy=0;strokeWidth=1;fontSize=20;endArrow=blockThin;endFill=1;fontStyle=0" edge="1" parent="1" source="feBxPXIGXP_3zXf3UD-c-41" target="feBxPXIGXP_3zXf3UD-c-51">
          <mxGeometry relative="1" as="geometry">
            <Array as="points">
              <mxPoint x="-974" y="110" />
              <mxPoint x="-1034" y="110" />
              <mxPoint x="-1034" y="40" />
            </Array>
          </mxGeometry>
        </mxCell>
        <mxCell id="feBxPXIGXP_3zXf3UD-c-41" value="Add &amp; Norm" style="whiteSpace=wrap;align=center;verticalAlign=middle;fontStyle=0;strokeWidth=1;fillColor=#FFFFCC" vertex="1" parent="1">
          <mxGeometry x="-1014" y="120" width="80" height="20" as="geometry" />
        </mxCell>
        <mxCell id="feBxPXIGXP_3zXf3UD-c-42" style="edgeStyle=orthogonalEdgeStyle;rounded=0;orthogonalLoop=1;jettySize=auto;html=1;exitX=0.5;exitY=0;exitDx=0;exitDy=0;entryX=0.5;entryY=1;entryDx=0;entryDy=0;strokeWidth=1;endArrow=blockThin;endFill=1;fontStyle=0" edge="1" parent="1" source="feBxPXIGXP_3zXf3UD-c-43" target="feBxPXIGXP_3zXf3UD-c-41">
          <mxGeometry relative="1" as="geometry" />
        </mxCell>
        <mxCell id="feBxPXIGXP_3zXf3UD-c-43" value="Multi-Head Attention" style="whiteSpace=wrap;align=center;verticalAlign=middle;fontStyle=0;strokeWidth=1;fillColor=#fad7ac;strokeColor=#000000;" vertex="1" parent="1">
          <mxGeometry x="-1014" y="150" width="80" height="40" as="geometry" />
        </mxCell>
        <mxCell id="feBxPXIGXP_3zXf3UD-c-44" style="edgeStyle=orthogonalEdgeStyle;rounded=0;orthogonalLoop=1;jettySize=auto;html=1;exitX=0.5;exitY=0;exitDx=0;exitDy=0;strokeWidth=1;fontSize=20;endArrow=blockThin;endFill=1;fontStyle=0" edge="1" parent="1" source="feBxPXIGXP_3zXf3UD-c-58" target="feBxPXIGXP_3zXf3UD-c-43">
          <mxGeometry relative="1" as="geometry">
            <mxPoint x="-974" y="230" as="sourcePoint" />
          </mxGeometry>
        </mxCell>
        <mxCell id="feBxPXIGXP_3zXf3UD-c-45" style="edgeStyle=orthogonalEdgeStyle;rounded=0;orthogonalLoop=1;jettySize=auto;html=1;exitX=0.5;exitY=0;exitDx=0;exitDy=0;entryX=0.75;entryY=1;entryDx=0;entryDy=0;strokeWidth=1;fontSize=20;endArrow=blockThin;endFill=1;fontStyle=0" edge="1" parent="1" source="feBxPXIGXP_3zXf3UD-c-58" target="feBxPXIGXP_3zXf3UD-c-43">
          <mxGeometry relative="1" as="geometry">
            <mxPoint x="-974" y="230" as="sourcePoint" />
            <Array as="points">
              <mxPoint x="-974" y="210" />
              <mxPoint x="-954" y="210" />
            </Array>
          </mxGeometry>
        </mxCell>
        <mxCell id="feBxPXIGXP_3zXf3UD-c-46" style="edgeStyle=orthogonalEdgeStyle;rounded=0;orthogonalLoop=1;jettySize=auto;html=1;exitX=0.5;exitY=0;exitDx=0;exitDy=0;strokeWidth=1;fontSize=20;endArrow=blockThin;endFill=1;fontStyle=0" edge="1" parent="1" source="feBxPXIGXP_3zXf3UD-c-47" target="feBxPXIGXP_3zXf3UD-c-51">
          <mxGeometry relative="1" as="geometry" />
        </mxCell>
        <mxCell id="feBxPXIGXP_3zXf3UD-c-47" value="Feed Forward" style="whiteSpace=wrap;align=center;verticalAlign=middle;fontStyle=0;strokeWidth=1;fillColor=#CCFFFF;" vertex="1" parent="1">
          <mxGeometry x="-1014" y="60" width="80" height="40" as="geometry" />
        </mxCell>
        <mxCell id="feBxPXIGXP_3zXf3UD-c-48" style="edgeStyle=orthogonalEdgeStyle;rounded=0;orthogonalLoop=1;jettySize=auto;html=1;exitX=0.5;exitY=0;exitDx=0;exitDy=0;entryX=0.5;entryY=1;entryDx=0;entryDy=0;strokeWidth=1;fontSize=12;endArrow=blockThin;endFill=1;" edge="1" parent="1" source="feBxPXIGXP_3zXf3UD-c-51" target="feBxPXIGXP_3zXf3UD-c-29">
          <mxGeometry relative="1" as="geometry">
            <Array as="points">
              <mxPoint x="-974" y="10" />
              <mxPoint x="-894" y="10" />
              <mxPoint x="-894" y="380" />
              <mxPoint x="-554" y="380" />
            </Array>
          </mxGeometry>
        </mxCell>
        <mxCell id="feBxPXIGXP_3zXf3UD-c-49" style="edgeStyle=orthogonalEdgeStyle;rounded=0;orthogonalLoop=1;jettySize=auto;html=1;exitX=0.5;exitY=0;exitDx=0;exitDy=0;entryX=0.467;entryY=0.225;entryDx=0;entryDy=0;entryPerimeter=0;" edge="1" parent="1" source="feBxPXIGXP_3zXf3UD-c-51" target="feBxPXIGXP_3zXf3UD-c-82">
          <mxGeometry relative="1" as="geometry">
            <Array as="points">
              <mxPoint x="-974" y="10" />
              <mxPoint x="-894" y="10" />
              <mxPoint x="-894" y="380" />
              <mxPoint x="-674" y="380" />
            </Array>
          </mxGeometry>
        </mxCell>
        <mxCell id="feBxPXIGXP_3zXf3UD-c-50" style="edgeStyle=orthogonalEdgeStyle;rounded=0;orthogonalLoop=1;jettySize=auto;html=1;exitX=0.5;exitY=0;exitDx=0;exitDy=0;entryX=0.508;entryY=0.275;entryDx=0;entryDy=0;entryPerimeter=0;" edge="1" parent="1" source="feBxPXIGXP_3zXf3UD-c-51" target="feBxPXIGXP_3zXf3UD-c-83">
          <mxGeometry relative="1" as="geometry">
            <Array as="points">
              <mxPoint x="-974" y="10" />
              <mxPoint x="-894" y="10" />
              <mxPoint x="-894" y="380" />
              <mxPoint x="-814" y="380" />
            </Array>
          </mxGeometry>
        </mxCell>
        <mxCell id="feBxPXIGXP_3zXf3UD-c-51" value="Add &amp; Norm" style="whiteSpace=wrap;align=center;verticalAlign=middle;fontStyle=0;strokeWidth=1;fillColor=#FFFFCC" vertex="1" parent="1">
          <mxGeometry x="-1014" y="30" width="80" height="20" as="geometry" />
        </mxCell>
        <mxCell id="feBxPXIGXP_3zXf3UD-c-52" value="Transformer-Encoder" style="text;html=1;strokeColor=none;fillColor=none;align=center;verticalAlign=middle;whiteSpace=wrap;rounded=0;fontSize=12;horizontal=0;fontStyle=0" vertex="1" parent="1">
          <mxGeometry x="-1094" y="65" width="60" height="30" as="geometry" />
        </mxCell>
        <mxCell id="feBxPXIGXP_3zXf3UD-c-53" value="1x" style="text;html=1;strokeColor=none;fillColor=none;align=center;verticalAlign=middle;whiteSpace=wrap;rounded=0;fontSize=12;fontStyle=0" vertex="1" parent="1">
          <mxGeometry x="-1104" y="190" width="20" height="30" as="geometry" />
        </mxCell>
        <mxCell id="feBxPXIGXP_3zXf3UD-c-54" style="edgeStyle=orthogonalEdgeStyle;rounded=0;orthogonalLoop=1;jettySize=auto;html=1;exitX=0.5;exitY=0;exitDx=0;exitDy=0;entryX=0.5;entryY=1;entryDx=0;entryDy=0;fontSize=20;strokeWidth=1;endArrow=blockThin;endFill=1;fontStyle=0" edge="1" parent="1" source="feBxPXIGXP_3zXf3UD-c-55" target="feBxPXIGXP_3zXf3UD-c-60">
          <mxGeometry relative="1" as="geometry" />
        </mxCell>
        <mxCell id="feBxPXIGXP_3zXf3UD-c-55" value="Repeat" style="whiteSpace=wrap;align=center;verticalAlign=middle;fontStyle=0;strokeWidth=1;fillColor=#fad9d5;strokeColor=#000000;" vertex="1" parent="1">
          <mxGeometry x="-1014" y="330" width="80" height="30" as="geometry" />
        </mxCell>
        <mxCell id="feBxPXIGXP_3zXf3UD-c-56" style="edgeStyle=orthogonalEdgeStyle;rounded=0;orthogonalLoop=1;jettySize=auto;html=1;exitX=0.5;exitY=0;exitDx=0;exitDy=0;entryX=0.25;entryY=1;entryDx=0;entryDy=0;strokeWidth=1;fontSize=12;endArrow=blockThin;endFill=1;" edge="1" parent="1" source="feBxPXIGXP_3zXf3UD-c-58" target="feBxPXIGXP_3zXf3UD-c-43">
          <mxGeometry relative="1" as="geometry">
            <Array as="points">
              <mxPoint x="-974" y="210" />
              <mxPoint x="-994" y="210" />
            </Array>
          </mxGeometry>
        </mxCell>
        <mxCell id="feBxPXIGXP_3zXf3UD-c-57" style="edgeStyle=orthogonalEdgeStyle;rounded=0;orthogonalLoop=1;jettySize=auto;html=1;exitX=0.5;exitY=0;exitDx=0;exitDy=0;entryX=0;entryY=0.5;entryDx=0;entryDy=0;strokeWidth=1;fontSize=12;endArrow=blockThin;endFill=1;" edge="1" parent="1" source="feBxPXIGXP_3zXf3UD-c-58" target="feBxPXIGXP_3zXf3UD-c-41">
          <mxGeometry relative="1" as="geometry">
            <Array as="points">
              <mxPoint x="-974" y="220" />
              <mxPoint x="-1034" y="220" />
              <mxPoint x="-1034" y="130" />
            </Array>
          </mxGeometry>
        </mxCell>
        <mxCell id="feBxPXIGXP_3zXf3UD-c-58" value="&lt;font style=&quot;font-size: 16px;&quot;&gt;+&lt;/font&gt;" style="ellipse;whiteSpace=wrap;html=1;aspect=fixed;strokeColor=#000000;strokeWidth=1;fontStyle=0" vertex="1" parent="1">
          <mxGeometry x="-984" y="240" width="20" height="20" as="geometry" />
        </mxCell>
        <mxCell id="feBxPXIGXP_3zXf3UD-c-59" style="edgeStyle=orthogonalEdgeStyle;rounded=0;orthogonalLoop=1;jettySize=auto;html=1;exitX=0.5;exitY=0;exitDx=0;exitDy=0;fontSize=20;strokeWidth=1;endArrow=blockThin;endFill=1;fontStyle=0" edge="1" parent="1" source="feBxPXIGXP_3zXf3UD-c-60" target="feBxPXIGXP_3zXf3UD-c-58">
          <mxGeometry relative="1" as="geometry" />
        </mxCell>
        <mxCell id="feBxPXIGXP_3zXf3UD-c-60" value="Positional Encoding" style="whiteSpace=wrap;align=center;verticalAlign=middle;fontStyle=0;strokeWidth=1;fillColor=#fad9d5;strokeColor=#000000;" vertex="1" parent="1">
          <mxGeometry x="-1014" y="280" width="80" height="30" as="geometry" />
        </mxCell>
        <mxCell id="feBxPXIGXP_3zXf3UD-c-61" value="" style="edgeStyle=segmentEdgeStyle;endArrow=blockThin;html=1;curved=0;rounded=0;endSize=8;startSize=8;fontSize=20;exitX=0.5;exitY=0;exitDx=0;exitDy=0;entryX=0;entryY=0.5;entryDx=0;entryDy=0;strokeWidth=1;endFill=1;fontStyle=0" edge="1" parent="1" source="feBxPXIGXP_3zXf3UD-c-55" target="feBxPXIGXP_3zXf3UD-c-58">
          <mxGeometry width="50" height="50" relative="1" as="geometry">
            <mxPoint x="-974" y="370" as="sourcePoint" />
            <mxPoint x="-774" y="350" as="targetPoint" />
            <Array as="points">
              <mxPoint x="-974" y="320" />
              <mxPoint x="-1034" y="320" />
              <mxPoint x="-1034" y="250" />
            </Array>
          </mxGeometry>
        </mxCell>
        <mxCell id="feBxPXIGXP_3zXf3UD-c-62" value="H&lt;sub&gt;LANG&lt;/sub&gt;, H&lt;sub style=&quot;border-color: var(--border-color);&quot;&gt;1&lt;/sub&gt;, H&lt;sub style=&quot;border-color: var(--border-color);&quot;&gt;1&lt;/sub&gt;, H&lt;sub style=&quot;border-color: var(--border-color);&quot;&gt;1&lt;/sub&gt;, H&lt;sub style=&quot;border-color: var(--border-color);&quot;&gt;2&lt;/sub&gt;, H&lt;sub style=&quot;border-color: var(--border-color);&quot;&gt;2&lt;/sub&gt;, H&lt;sub style=&quot;border-color: var(--border-color);&quot;&gt;2&lt;/sub&gt;,&amp;nbsp;..., H&lt;sub style=&quot;border-color: var(--border-color);&quot;&gt;n&lt;/sub&gt;, H&lt;sub style=&quot;border-color: var(--border-color);&quot;&gt;n&lt;/sub&gt;, H&lt;sub style=&quot;border-color: var(--border-color);&quot;&gt;n&lt;/sub&gt;, H&lt;sub&gt;END&lt;/sub&gt;" style="text;html=1;strokeColor=none;fillColor=none;align=center;verticalAlign=middle;whiteSpace=wrap;rounded=0;fontSize=12;" vertex="1" parent="1">
          <mxGeometry x="-1074" y="390" width="200" height="30" as="geometry" />
        </mxCell>
        <mxCell id="feBxPXIGXP_3zXf3UD-c-63" value="H&lt;sub&gt;LANG&lt;/sub&gt;, H&lt;sub style=&quot;border-color: var(--border-color);&quot;&gt;1&lt;/sub&gt;, H&lt;sub style=&quot;border-color: var(--border-color);&quot;&gt;2&lt;/sub&gt;,&amp;nbsp;..., H&lt;sub style=&quot;border-color: var(--border-color);&quot;&gt;n&lt;/sub&gt;, H&lt;sub&gt;END&lt;/sub&gt;" style="text;html=1;strokeColor=none;fillColor=none;align=center;verticalAlign=middle;whiteSpace=wrap;rounded=0;fontSize=12;" vertex="1" parent="1">
          <mxGeometry x="-1314" y="60" width="200" height="30" as="geometry" />
        </mxCell>
        <mxCell id="feBxPXIGXP_3zXf3UD-c-64" style="edgeStyle=orthogonalEdgeStyle;rounded=0;orthogonalLoop=1;jettySize=auto;html=1;exitX=0.5;exitY=0;exitDx=0;exitDy=0;" edge="1" parent="1" source="feBxPXIGXP_3zXf3UD-c-65" target="feBxPXIGXP_3zXf3UD-c-69">
          <mxGeometry relative="1" as="geometry" />
        </mxCell>
        <mxCell id="feBxPXIGXP_3zXf3UD-c-65" value="FC" style="whiteSpace=wrap;align=center;verticalAlign=middle;fontStyle=0;strokeWidth=1;fillColor=#d0cee2;strokeColor=#000000;" vertex="1" parent="1">
          <mxGeometry x="-854" y="220" width="80" height="30" as="geometry" />
        </mxCell>
        <mxCell id="feBxPXIGXP_3zXf3UD-c-66" style="edgeStyle=orthogonalEdgeStyle;rounded=0;orthogonalLoop=1;jettySize=auto;html=1;exitX=0.5;exitY=0;exitDx=0;exitDy=0;" edge="1" parent="1" source="feBxPXIGXP_3zXf3UD-c-67" target="feBxPXIGXP_3zXf3UD-c-71">
          <mxGeometry relative="1" as="geometry" />
        </mxCell>
        <mxCell id="feBxPXIGXP_3zXf3UD-c-67" value="FC" style="whiteSpace=wrap;align=center;verticalAlign=middle;fontStyle=0;strokeWidth=1;fillColor=#d0cee2;strokeColor=#000000;" vertex="1" parent="1">
          <mxGeometry x="-714" y="220" width="80" height="30" as="geometry" />
        </mxCell>
        <mxCell id="feBxPXIGXP_3zXf3UD-c-68" style="edgeStyle=orthogonalEdgeStyle;rounded=0;orthogonalLoop=1;jettySize=auto;html=1;exitX=0.5;exitY=0;exitDx=0;exitDy=0;entryX=0.5;entryY=1;entryDx=0;entryDy=0;" edge="1" parent="1" source="feBxPXIGXP_3zXf3UD-c-69" target="feBxPXIGXP_3zXf3UD-c-73">
          <mxGeometry relative="1" as="geometry">
            <mxPoint x="-813.9999999999995" y="140" as="targetPoint" />
          </mxGeometry>
        </mxCell>
        <mxCell id="feBxPXIGXP_3zXf3UD-c-69" value="Output Embedding&#xa;ï¼ˆSyllable)" style="whiteSpace=wrap;align=center;verticalAlign=middle;fontStyle=0;strokeWidth=1;fillColor=#fad9d5;strokeColor=#000000;" vertex="1" parent="1">
          <mxGeometry x="-854" y="160" width="80" height="40" as="geometry" />
        </mxCell>
        <mxCell id="feBxPXIGXP_3zXf3UD-c-70" style="edgeStyle=orthogonalEdgeStyle;rounded=0;orthogonalLoop=1;jettySize=auto;html=1;exitX=0.5;exitY=0;exitDx=0;exitDy=0;entryX=0.5;entryY=1;entryDx=0;entryDy=0;" edge="1" parent="1" source="feBxPXIGXP_3zXf3UD-c-71" target="feBxPXIGXP_3zXf3UD-c-73">
          <mxGeometry relative="1" as="geometry">
            <mxPoint x="-673.9999999999995" y="140" as="targetPoint" />
          </mxGeometry>
        </mxCell>
        <mxCell id="feBxPXIGXP_3zXf3UD-c-71" value="Output Embedding&#xa;ï¼ˆStress)" style="whiteSpace=wrap;align=center;verticalAlign=middle;fontStyle=0;strokeWidth=1;fillColor=#fad9d5;strokeColor=#000000;" vertex="1" parent="1">
          <mxGeometry x="-714" y="160" width="80" height="40" as="geometry" />
        </mxCell>
        <mxCell id="feBxPXIGXP_3zXf3UD-c-72" style="edgeStyle=orthogonalEdgeStyle;rounded=0;orthogonalLoop=1;jettySize=auto;html=1;exitX=0.5;exitY=0;exitDx=0;exitDy=0;entryX=0.5;entryY=1;entryDx=0;entryDy=0;" edge="1" parent="1" source="feBxPXIGXP_3zXf3UD-c-73" target="feBxPXIGXP_3zXf3UD-c-74">
          <mxGeometry relative="1" as="geometry" />
        </mxCell>
        <mxCell id="feBxPXIGXP_3zXf3UD-c-73" value="Softmax &amp; Deduplicate &amp; Trim &amp; Postprocess" style="whiteSpace=wrap;align=center;verticalAlign=middle;fontStyle=0;strokeWidth=1;fillColor=#fad9d5;strokeColor=#000000;" vertex="1" parent="1">
          <mxGeometry x="-594" y="65" width="80" height="55" as="geometry" />
        </mxCell>
        <mxCell id="feBxPXIGXP_3zXf3UD-c-74" value="Output" style="shape=parallelogram;perimeter=parallelogramPerimeter;whiteSpace=wrap;html=1;fixedSize=1;strokeColor=#000000;strokeWidth=1;fontSize=12;fillColor=#fad9d5;fontStyle=0" vertex="1" parent="1">
          <mxGeometry x="-594" y="20" width="85" height="30" as="geometry" />
        </mxCell>
        <mxCell id="feBxPXIGXP_3zXf3UD-c-75" style="edgeStyle=orthogonalEdgeStyle;rounded=0;orthogonalLoop=1;jettySize=auto;html=1;exitX=0;exitY=0.5;exitDx=0;exitDy=0;entryX=0;entryY=0.5;entryDx=0;entryDy=0;dashed=1;" edge="1" parent="1" source="feBxPXIGXP_3zXf3UD-c-76" target="feBxPXIGXP_3zXf3UD-c-65">
          <mxGeometry relative="1" as="geometry">
            <mxPoint x="-843.833333333333" y="30" as="targetPoint" />
            <Array as="points">
              <mxPoint x="-874" y="95" />
              <mxPoint x="-874" y="235" />
            </Array>
          </mxGeometry>
        </mxCell>
        <mxCell id="feBxPXIGXP_3zXf3UD-c-76" value="Output&lt;br&gt;(Syllable)" style="shape=parallelogram;perimeter=parallelogramPerimeter;whiteSpace=wrap;html=1;fixedSize=1;strokeColor=#000000;strokeWidth=1;fontSize=12;fillColor=#fad9d5;fontStyle=0" vertex="1" parent="1">
          <mxGeometry x="-856.5" y="80" width="85" height="30" as="geometry" />
        </mxCell>
        <mxCell id="feBxPXIGXP_3zXf3UD-c-77" style="edgeStyle=orthogonalEdgeStyle;rounded=0;orthogonalLoop=1;jettySize=auto;html=1;exitX=0;exitY=0.25;exitDx=0;exitDy=0;entryX=0;entryY=0.5;entryDx=0;entryDy=0;dashed=1;" edge="1" parent="1" source="feBxPXIGXP_3zXf3UD-c-78" target="feBxPXIGXP_3zXf3UD-c-67">
          <mxGeometry relative="1" as="geometry">
            <Array as="points">
              <mxPoint x="-734" y="90" />
              <mxPoint x="-734" y="235" />
            </Array>
          </mxGeometry>
        </mxCell>
        <mxCell id="feBxPXIGXP_3zXf3UD-c-78" value="Output&lt;br&gt;(Stress)" style="shape=parallelogram;perimeter=parallelogramPerimeter;whiteSpace=wrap;html=1;fixedSize=1;strokeColor=#000000;strokeWidth=1;fontSize=12;fillColor=#fad9d5;fontStyle=0" vertex="1" parent="1">
          <mxGeometry x="-716.5" y="80" width="85" height="30" as="geometry" />
        </mxCell>
        <mxCell id="feBxPXIGXP_3zXf3UD-c-79" style="edgeStyle=orthogonalEdgeStyle;rounded=0;orthogonalLoop=1;jettySize=auto;html=1;exitX=0;exitY=0.5;exitDx=0;exitDy=0;entryX=1;entryY=0.5;entryDx=0;entryDy=0;dashed=1;" edge="1" parent="1" source="feBxPXIGXP_3zXf3UD-c-80" target="feBxPXIGXP_3zXf3UD-c-29">
          <mxGeometry relative="1" as="geometry" />
        </mxCell>
        <mxCell id="feBxPXIGXP_3zXf3UD-c-80" value="Output&lt;br&gt;(Phone)" style="shape=parallelogram;perimeter=parallelogramPerimeter;whiteSpace=wrap;html=1;fixedSize=1;strokeColor=#000000;strokeWidth=1;fontSize=12;fillColor=#fad9d5;fontStyle=0" vertex="1" parent="1">
          <mxGeometry x="-474" y="205" width="85" height="30" as="geometry" />
        </mxCell>
        <mxCell id="feBxPXIGXP_3zXf3UD-c-81" style="edgeStyle=orthogonalEdgeStyle;rounded=0;orthogonalLoop=1;jettySize=auto;html=1;entryX=0.5;entryY=1;entryDx=0;entryDy=0;" edge="1" parent="1" source="feBxPXIGXP_3zXf3UD-c-82" target="feBxPXIGXP_3zXf3UD-c-67">
          <mxGeometry relative="1" as="geometry" />
        </mxCell>
        <mxCell id="feBxPXIGXP_3zXf3UD-c-82" value="" style="shape=waypoint;sketch=0;fillStyle=solid;size=6;pointerEvents=1;points=[];fillColor=none;resizable=0;rotatable=0;perimeter=centerPerimeter;snapToPoint=1;" vertex="1" parent="1">
          <mxGeometry x="-684" y="270" width="20" height="20" as="geometry" />
        </mxCell>
        <mxCell id="feBxPXIGXP_3zXf3UD-c-83" value="" style="shape=waypoint;sketch=0;fillStyle=solid;size=6;pointerEvents=1;points=[];fillColor=none;resizable=0;rotatable=0;perimeter=centerPerimeter;snapToPoint=1;" vertex="1" parent="1">
          <mxGeometry x="-824" y="299" width="20" height="20" as="geometry" />
        </mxCell>
        <mxCell id="feBxPXIGXP_3zXf3UD-c-84" value="Concat" style="text;html=1;strokeColor=none;fillColor=none;align=center;verticalAlign=middle;whiteSpace=wrap;rounded=0;" vertex="1" parent="1">
          <mxGeometry x="-867" y="287" width="60" height="30" as="geometry" />
        </mxCell>
        <mxCell id="feBxPXIGXP_3zXf3UD-c-85" value="Concat" style="text;html=1;strokeColor=none;fillColor=none;align=center;verticalAlign=middle;whiteSpace=wrap;rounded=0;" vertex="1" parent="1">
          <mxGeometry x="-727.75" y="260" width="60" height="30" as="geometry" />
        </mxCell>
      </root>
    </mxGraphModel>
  </diagram>
</mxfile>
